#!OML:ASF H:\BabyWalks\Project 1\Capture day 1\Session 1\baby.ASF
:FULLY-SPECIFIED
:DEGREES
1333
root 43.9359 17.4875 -1.07044 8.41988 107.232 11.0531
lowerback 18.1455 0.280966 3.96017
upperback 6.23752 1.59413 1.27435
thorax -3.40255 1.00482 -1.23521
lowerneck 2.82085 2.18956 5.45266
upperneck -9.86238 2.83068 -6.61905
head -3.56292 1.53778 -3.32149
rclavicle -4.96962e-016 -1.59028e-014
rhumerus -41.2705 1.77585 -80.5355
rradius 46.3429
rwrist 6.29579
rhand -9.42329 -14.7275
rfingers 7.12502
rthumb 16.5389 -44.0426
lclavicle -4.96962e-016 -1.59028e-014
lhumerus -43.2792 -6.19977 78.0979
lradius 55.0865
lwrist 0.41183
lhand 2.45593 9.56229
lfingers 7.12502
lthumb 27.9405 37.5033
rfemur -11.365 5.17973 19.9804
rtibia 25.167
rfoot -11.5697 -9.30105
rtoes -2.42328
lfemur 0.00979839 -10.4256 -10.2357
ltibia 21.9247
lfoot -24.6496 -7.96872
ltoes -6.7877
1334
root 43.947 17.4877 -1.06958 8.09166 107.529 10.8684
lowerback 18.0846 0.309073 4.06427
upperback 6.20187 1.64599 1.2907
thorax -3.40348 1.02979 -1.2864
lowerneck 2.85818 2.62885 5.87628
upperneck -10.0186 3.36074 -7.49259
head -3.20274 1.84436 -3.35654
rclavicle 6.59965e-014 -1.0138e-014
rhumerus -41.2218 1.64781 -80.4563
rradius 46.3164
rwrist 6.33055
rhand -9.41034 -14.7194
rfingers 7.12502
rthumb 16.5514 -44.0335
lclavicle 6.59965e-014 -1.0138e-014
lhumerus -43.2311 -6.2577 78.1195
lradius 55.0931
lwrist 0.43696
lhand 2.41071 9.5657
lfingers 7.12502
lthumb 27.8973 37.5138
rfemur -11.1047 5.04159 19.9999
rtibia 25.1491
rfoot -11.6226 -9.50691
rtoes -2.65582
lfemur 0.172171 -10.5694 -10.2404
ltibia 21.8055
lfoot -24.6176 -8.16353
ltoes -6.75039
1335
root 43.9584 17.4877 -1.06852 7.75007 107.836 10.6745
lowerback 18.0231 0.340472 4.17659
upperback 6.1664 1.70337 1.30413
thorax -3.40309 1.05759 -1.34632
lowerneck 2.95197 3.08843 6.33983
upperneck -9.90889 3.95904 -8.1741
head -3.1173 2.15561 -3.65593
rclavicle -6.90777e-014 8.54774e-015
rhumerus -41.1769 1.49516 -80.3715
rradius 46.2977
rwrist 6.36574
rhand -9.40285 -14.7176
rfingers 7.12502
rthumb 16.5586 -44.0311
lclavicle -6.90777e-014 8.54774e-015
lhumerus -43.1721 -6.33678 78.1483
lradius 55.0917
lwrist 0.46326
lhand 2.3651 9.56758
lfingers 7.12502
lthumb 27.8537 37.5227
rfemur -10.8335 4.90256 20.0157
rtibia 25.1302
rfoot -11.6872 -9.71602
rtoes -2.85775
lfemur 0.336294 -10.7128 -10.2473
ltibia 21.6891
lfoot -24.5875 -8.36831
ltoes -6.71041
1336
root 43.9702 17.4874 -1.06718 7.4141 108.146 10.4868
lowerback 17.9531 0.378241 4.29732
upperback 6.13334 1.76987 1.31567
thorax -3.39462 1.09016 -1.41446
lowerneck 3.04924 3.56976 6.82273
upperneck -9.7827 4.58936 -8.88104
head -3.01646 2.48343 -3.96488
rclavicle 9.54166e-015 7.95139e-015
rhumerus -41.1324 1.31838 -80.282
rradius 46.2892
rwrist 6.39513
rhand -9.41079 -14.7154
rfingers 7.12502
rthumb 16.551 -44.0296
lclavicle 9.54166e-015 7.95139e-015
lhumerus -43.0964 -6.44125 78.1839
lradius 55.0818
lwrist 0.492505
lhand 2.32029 9.56451
lfingers 7.12502
lthumb 27.8109 37.5266
rfemur -10.558 4.76887 20.0316
rtibia 25.1101
rfoot -11.7645 -9.92506
rtoes -3.02046
lfemur 0.498549 -10.8508 -10.2516
ltibia 21.5757
lfoot -24.5588 -8.5814
ltoes -6.66799
1337
root 43.9824 17.4868 -1.0654 7.08804 108.457 10.3121
lowerback 17.8848 0.424268 4.42993
upperback 6.09699 1.84894 1.3244
thorax -3.38903 1.1288 -1.49474
lowerneck 3.16428 4.06466 7.31783
upperneck -9.64515 5.24218 -9.60227
head -2.90453 2.82317 -4.27858
rclavicle 6.4605e-014 1.03368e-014
rhumerus -41.099 1.11508 -80.1891
rradius 46.2911
rwrist 6.40897
rhand -9.43515 -14.7194
rfingers 7.12502
rthumb 16.5275 -44.0355
lclavicle 6.4605e-014 1.03368e-014
lhumerus -43.0144 -6.57391 78.2272
lradius 55.0666
lwrist 0.51873
lhand 2.28521 9.55999
lfingers 7.12502
lthumb 27.7773 37.5275
rfemur -10.2749 4.65189 20.0501
rtibia 25.0876
rfoot -11.8672 -10.1393
rtoes -3.1347
lfemur 0.661174 -10.981 -10.2504
ltibia 21.4667
lfoot -24.532 -8.80433
ltoes -6.61889
1338
root 43.9949 17.486 -1.06333 6.76191 108.772 10.1394
lowerback 17.8154 0.476276 4.57004
upperback 6.05945 1.9367 1.33031
thorax -3.38283 1.17173 -1.58377
lowerneck 3.29145 4.57094 7.80603
upperneck -9.49286 5.91519 -10.3203
head -2.78035 3.1735 -4.58783
rclavicle 3.88624e-014 3.10104e-014
rhumerus -41.069 0.8932 -80.0926
rradius 46.2945
rwrist 6.41765
rhand -9.46774 -14.7247
rfingers 7.12502
rthumb 16.4961 -44.0434
lclavicle 3.88624e-014 3.10104e-014
lhumerus -42.9183 -6.73463 78.2766
lradius 55.0438
lwrist 0.550752
lhand 2.25997 9.55657
lfingers 7.12502
lthumb 27.7532 37.5279
rfemur -9.98751 4.53972 20.0683
rtibia 25.0644
rfoot -11.9591 -10.3545
rtoes -3.17486
lfemur 0.824031 -11.1059 -10.248
ltibia 21.3603
lfoot -24.5055 -9.03656
ltoes -6.56111
